<?xml version="1.0" encoding="UTF-8"?>
<svg width="246px" height="109px" viewBox="0 0 246 109" version="1.1" xmlns="http://www.w3.org/2000/svg" xmlns:xlink="http://www.w3.org/1999/xlink">
    <!-- Generator: Sketch 53.2 (72643) - https://sketchapp.com -->
    <title>logo</title>
    <desc>Created with Sketch.</desc>
    <defs>
        <polygon id="path-1" points="0 109 247 109 247 0 0 0"></polygon>
    </defs>
    <g id="Page-1" stroke="none" stroke-width="1" fill="none" fill-rule="evenodd">
        <g id="首頁-web-header" transform="translate(-598.000000, -21.000000)">
            <g id="headerPc" transform="translate(438.000000, 21.000000)">
                <g id="logo" transform="translate(160.000000, 0.000000)">
                    <path d="M89.8046065,98.9548414 C90.0953287,98.9548414 90.2368645,99.094728 90.2368645,99.3740811 C90.2368645,99.6765385 90.0953287,99.8164251 89.8046065,99.8164251 L85.3494171,99.8164251 C85.046369,99.8164251 84.9137589,99.6765385 84.9137589,99.3740811 C84.9137589,99.094728 85.046369,98.9548414 85.3494171,98.9548414 L89.8046065,98.9548414 Z M89.7098243,96.7658055 C90.0005465,96.7658055 90.1658841,96.8809074 90.1658841,97.1829448 C90.1658841,97.4715396 90.0005465,97.6269691 89.7098243,97.6269691 L85.3494171,97.6269691 C85.046369,97.6269691 84.9137589,97.4715396 84.9137589,97.1829448 C84.9137589,96.8809074 85.046369,96.7658055 85.3494171,96.7658055 L89.7098243,96.7658055 Z M90.190961,106.237345 L90.190961,105.048939 L83.0975955,105.048939 L83.0975955,107.066583 L89.3404712,107.066583 C89.8921632,107.066583 90.190961,106.78723 90.190961,106.237345 L90.190961,106.237345 Z M90.190961,104.097459 L90.190961,103.006511 C90.190961,102.424701 89.8921632,102.145348 89.3404712,102.145348 L83.0975955,102.145348 L83.0975955,104.097459 L90.190961,104.097459 Z M80.0641394,96.6687671 C80.3467859,96.6687671 80.4802461,96.8241966 80.4802461,97.1035497 C80.4802461,97.4055871 80.3467859,97.5282504 80.0641394,97.5282504 L75.4015342,97.5282504 C75.1205878,97.5282504 74.965876,97.4055871 74.965876,97.1035497 C74.965876,96.8241966 75.1205878,96.6687671 75.4015342,96.6687671 L80.0641394,96.6687671 Z M79.9816831,99.0539803 C80.2477534,99.0539803 80.413091,99.1934468 80.413091,99.4643982 C80.413091,99.7668557 80.2477534,99.8920395 79.9816831,99.8920395 L75.3148276,99.8920395 C75.0113544,99.8920395 74.8630181,99.7668557 74.8630181,99.4643982 C74.8630181,99.1934468 75.0113544,99.0539803 75.3148276,99.0539803 L79.9816831,99.0539803 Z M82.0392649,107.066583 L82.0392649,105.048939 L74.6883298,105.048939 L74.6883298,106.237345 C74.6883298,106.5251 74.7920377,106.746482 74.9990285,106.852762 C75.1732918,106.992229 75.3764573,107.066583 75.5668718,107.066583 L82.0392649,107.066583 Z M82.0392649,104.097459 L82.0392649,102.145348 L75.5668718,102.145348 C74.9990285,102.145348 74.6883298,102.424701 74.6883298,103.006511 L74.6883298,104.097459 L82.0392649,104.097459 Z M91.22804,106.581811 C91.22804,107.048939 91.070353,107.400546 90.755404,107.641252 C90.4774328,107.885318 90.1293313,108 89.7803797,108 L75.0946608,108 C74.7214824,108 74.4103586,107.885318 74.087334,107.607645 C73.7876862,107.377862 73.6389249,107.048939 73.6389249,106.581811 L73.6389249,102.638521 C73.6389249,102.219282 73.7804607,101.851712 74.0580068,101.586641 C74.335978,101.31737 74.6883298,101.195547 75.0946608,101.195547 L89.7803797,101.195547 C90.190961,101.195547 90.5229113,101.31737 90.821709,101.586641 C91.1158314,101.851712 91.22804,102.219282 91.22804,102.638521 L91.22804,106.581811 Z M83.0975955,94.5343415 L91.0452761,94.5343415 C91.4320555,94.5343415 91.7708063,94.6099559 92.0453773,94.7637051 C92.344175,94.8968704 92.4937864,95.3564377 92.4937864,96.1100609 C92.4937864,96.4545264 92.4478829,96.9304768 92.3773276,97.5954631 C92.3195232,98.2495274 92.1941386,98.6187776 92.0866054,98.6859903 C91.9667463,98.7519429 91.8757893,98.7834489 91.7886577,98.7834489 C91.3772264,98.7834489 91.2118888,98.5536652 91.2573672,98.0798152 C91.3610751,97.2837639 91.4320555,96.7090947 91.4320555,96.3465658 C91.4320555,95.7739971 91.1502591,95.4854022 90.6266192,95.4854022 L83.0975955,95.4854022 L83.0975955,99.8164251 C83.0975955,100.170132 82.9144066,100.348246 82.5701303,100.348246 C82.2139532,100.348246 82.0392649,100.170132 82.0392649,99.8164251 L82.0392649,95.4854022 L74.6883298,95.4854022 C74.0499312,95.4854022 73.692904,95.8143247 73.692904,96.4545264 L73.692904,98.1520689 C73.692904,98.5217391 73.5262913,98.7006931 73.1701142,98.7006931 C72.8385889,98.7006931 72.6639006,98.5217391 72.6639006,98.1520689 L72.6639006,96.2176013 C72.6639006,95.7151859 72.8130869,95.3068683 73.1203854,94.9939088 C73.4268337,94.6918715 73.8420903,94.5343415 74.3725308,94.5343415 L82.0392649,94.5343415 L82.0392649,93.0346566 L74.6007732,93.0346566 C74.2777485,93.0346566 74.1115609,92.8720857 74.1115609,92.5427431 C74.1115609,92.2318841 74.2777485,92.0583911 74.6007732,92.0583911 L90.2491904,92.0583911 C90.5683897,92.0583911 90.7269268,92.2318841 90.7269268,92.5427431 C90.7269268,92.8380592 90.5683897,92.9619828 90.2491904,92.9619828 L83.0975955,92.9619828 L83.0975955,94.5343415 Z M87.6475672,89.510607 L92.4937864,89.510607 C92.8333873,89.510607 93,89.6819996 93,90.015963 C93,90.3537072 92.8333873,90.5183785 92.4937864,90.5183785 L87.6475672,90.5183785 L87.6475672,91.0749842 C87.6475672,91.4198698 87.4694786,91.5845411 87.1128765,91.5845411 C86.7762508,91.5845411 86.594762,91.4198698 86.594762,91.0749842 L86.594762,90.5183785 L78.4464662,90.5183785 L78.4464662,91.0749842 C78.4464662,91.4198698 78.2641273,91.5845411 77.919851,91.5845411 C77.5670742,91.5845411 77.3885606,91.4198698 77.3885606,91.0749842 L77.3885606,90.5183785 L72.5223648,90.5183785 C72.1908395,90.5183785 72,90.3537072 72,90.015963 C72,89.6819996 72.1908395,89.510607 72.5223648,89.510607 L77.3885606,89.510607 L77.3885606,88.4919135 C77.3885606,88.1713926 77.5670742,88 77.919851,88 C78.2641273,88 78.4464662,88.1713926 78.4464662,88.4919135 L78.4464662,89.510607 L86.594762,89.510607 L86.594762,88.4919135 C86.594762,88.1713926 86.7762508,88 87.1128765,88 C87.4694786,88 87.6475672,88.1713926 87.6475672,88.4919135 L87.6475672,89.510607 Z" id="Fill-1" fill="#4F2E12"></path>
                    <path d="M119.743763,105.65746 C120.050955,105.65746 120.672592,106.015376 121.609955,106.783314 C122.543905,107.525626 123,108.057802 123,108.25 C123,108.601082 122.838297,108.791572 122.47564,108.791572 C122.33911,108.791572 122.188074,108.733912 122.055384,108.601082 C121.254551,107.798975 120.417452,107.149772 119.548354,106.675256 C119.361479,106.591116 119.251829,106.466828 119.251829,106.317341 C119.251829,105.875285 119.393478,105.65746 119.743763,105.65746 L119.743763,105.65746 Z M116.528911,108.557517 C116.528911,108.816344 116.371048,108.96754 116.05831,108.96754 C115.770744,108.96754 115.559122,108.802249 115.491711,108.518223 C115.213104,107.565347 115.004896,106.948178 114.859407,106.675256 C114.73397,106.382261 114.671678,106.207574 114.671678,106.097808 C114.671678,105.999146 114.709651,105.898349 114.797542,105.781748 C114.900792,105.67369 115.025376,105.607489 115.146119,105.607489 C115.442219,105.607489 115.612881,105.733058 115.670479,105.916287 C115.745998,106.123434 115.900447,106.54029 116.146201,107.149772 C116.408594,107.766515 116.528911,108.241458 116.528911,108.557517 L116.528911,108.557517 Z M117.141162,95.8015376 C117.490593,95.8015376 117.686428,95.9937358 117.686428,96.3191913 C117.686428,96.6121868 117.274279,97.0273349 116.429074,97.6372437 C115.612881,98.2462984 115.11284,98.5290433 114.925112,98.5290433 C114.583787,98.5290433 114.392645,98.3701595 114.392645,98.0378702 C114.392645,97.8200456 114.496749,97.6440774 114.717757,97.5274772 C115.570642,97.0708998 116.241772,96.5600797 116.724746,96.002705 C116.84037,95.8856777 116.987139,95.8015376 117.141162,95.8015376 L117.141162,95.8015376 Z M119.3154,98.2971241 L119.3154,96.3439636 C119.3154,95.7690774 119.044047,95.4615604 118.474035,95.4615604 L113.193742,95.4615604 L113.193742,99.154328 L118.474035,99.154328 C118.719362,99.154328 118.93653,99.0718964 119.077326,98.9134396 C119.251829,98.7609624 119.3154,98.5290433 119.3154,98.2971241 L119.3154,98.2971241 Z M110.26603,105.598092 C110.623568,105.598092 110.80319,105.806948 110.80319,106.175541 C110.80319,106.416002 110.749004,106.849516 110.611195,107.525626 C110.478078,108.158172 110.373974,108.568195 110.303149,108.717682 C110.232324,108.875712 110.099208,108.942341 109.911479,108.942341 C109.628606,108.942341 109.483117,108.86717 109.483117,108.699744 L109.778789,106.157603 C109.778789,105.799687 109.940918,105.598092 110.26603,105.598092 L110.26603,105.598092 Z M108.187363,95.8536446 C108.371252,95.8536446 108.849959,96.1376708 109.628606,96.7539863 C110.407253,97.3369875 110.80319,97.7448747 110.80319,97.9874715 C110.80319,98.3701595 110.623568,98.5700456 110.26603,98.5700456 C110.037343,98.5700456 109.911479,98.4944476 109.820601,98.3885251 C109.145632,97.7124146 108.533807,97.1947608 107.976168,96.8620444 C107.771373,96.7454442 107.692442,96.6442198 107.692442,96.5203588 C107.692442,96.0599374 107.834092,95.8536446 108.187363,95.8536446 L108.187363,95.8536446 Z M112.144169,99.154328 L112.144169,95.4615604 L106.877103,95.4615604 C106.301544,95.4615604 106.009711,95.7690774 106.009711,96.3439636 L106.009711,98.2971241 C106.009711,98.8634681 106.301544,99.154328 106.877103,99.154328 L112.144169,99.154328 Z M113.193742,104.131407 L122.274685,104.131407 C122.583584,104.131407 122.741447,104.289436 122.741447,104.605923 C122.741447,104.747722 122.687261,104.83955 122.583584,104.95615 C122.47564,105.047978 122.371536,105.091543 122.274685,105.091543 L102.965949,105.091543 C102.633157,105.091543 102.462495,104.93992 102.462495,104.605923 C102.462495,104.289436 102.633157,104.131407 102.965949,104.131407 L112.144169,104.131407 L112.144169,102.599374 L104.839395,102.599374 C104.515136,102.599374 104.36538,102.430239 104.36538,102.106919 C104.36538,101.788297 104.515136,101.639237 104.839395,101.639237 L112.144169,101.639237 L112.144169,100.121726 L106.413755,100.121726 C106.022085,100.121726 105.66028,99.9636959 105.39362,99.7044419 C105.110748,99.4041856 104.948192,99.0718964 104.948192,98.6708428 L104.948192,95.9937358 C104.948192,95.527762 105.110748,95.1595957 105.380821,94.9114465 C105.66028,94.634254 106.009711,94.5176538 106.413755,94.5176538 L118.306786,94.5176538 C116.275904,93.7838838 114.513816,92.6853645 113.026493,91.2327733 L108.012861,91.5834282 C107.596445,91.6338269 107.396343,91.4518793 107.396343,91.0333144 C107.396343,90.7185364 107.580232,90.5583713 107.930516,90.5335991 L112.2231,90.2512813 C111.543864,89.3073747 111.19486,88.7478645 111.19486,88.5484055 C111.19486,88.2413155 111.411174,88.0482631 111.810951,88.0482631 C111.906948,88.0482631 112.019159,88.1400911 112.161235,88.3327164 C112.552479,89.0498292 112.947562,89.675541 113.384884,90.1577449 L118.123751,89.8574886 C117.649736,89.4816344 117.294758,89.1993166 117.015725,89.07332 C116.762292,88.949459 116.636855,88.7982631 116.636855,88.5573747 C116.636855,88.2229499 116.762292,88.0482631 117.045165,88.0482631 C117.35321,88.0482631 117.807599,88.2413155 118.436489,88.690205 C119.044047,89.1237187 119.386652,89.4816344 119.47369,89.7583998 L121.254551,89.6161731 C121.392787,89.6093394 121.527184,89.6490604 121.642381,89.7583998 C121.755445,89.842967 121.834376,89.9740888 121.834376,90.0979499 C121.834376,90.4669704 121.642381,90.6501993 121.301056,90.6664294 L114.313287,91.1751139 C115.38846,92.1425114 116.590776,92.9083144 117.869464,93.4930239 C119.164791,94.0935364 120.25191,94.3681663 121.097968,94.3681663 C121.326229,94.3681663 121.502438,94.3681663 121.642381,94.3199032 C121.818163,94.3019647 121.879175,94.235336 121.879175,94.0751708 C121.879175,93.9692483 121.847176,93.7518508 121.792991,93.3687358 C121.714059,93.0091116 121.69614,92.7340547 121.69614,92.5683371 C121.69614,92.2595387 121.834376,92.101082 122.152235,92.101082 C122.396709,92.101082 122.595957,92.3171982 122.712861,92.7340547 C122.838297,93.1351082 122.892483,93.6672836 122.892483,94.3339977 C122.892483,94.6919134 122.838297,94.9511674 122.741447,95.0677677 C122.504226,95.1198747 122.235006,95.145074 121.911601,95.145074 C121.392787,95.145074 120.739151,95.092967 120.002316,94.9511674 C120.259163,95.2351936 120.372653,95.5781606 120.372653,95.9937358 L120.372653,98.6708428 C120.372653,99.1218679 120.214364,99.5049829 119.907172,99.7210991 C119.614486,99.9636959 119.260788,100.121726 118.93653,100.121726 L113.193742,100.121726 L113.193742,101.639237 L120.763897,101.639237 C121.067676,101.639237 121.231085,101.788297 121.231085,102.106919 C121.231085,102.430239 121.067676,102.599374 120.763897,102.599374 L113.193742,102.599374 L113.193742,104.131407 Z M105.880008,105.623292 C106.264425,105.623292 106.443194,105.799687 106.443194,106.108912 C106.443194,106.466828 105.922247,107.033172 104.810809,107.849374 C103.727529,108.625854 103.049573,109 102.794433,109 C102.712089,109 102.595185,108.98377 102.462495,108.875712 C102.336631,108.765945 102.282873,108.642084 102.282873,108.475085 C102.282873,108.26623 102.39167,108.11717 102.64553,107.983912 C103.757395,107.433798 104.715238,106.725655 105.497725,105.839408 C105.643214,105.707859 105.764384,105.623292 105.880008,105.623292 L105.880008,105.623292 Z M104.586388,91.8601936 C103.474523,92.6853645 102.794433,93.0936788 102.462495,93.0936788 C102.153169,93.0936788 102,92.9194191 102,92.5683371 C102,92.3419704 102.116904,92.1749715 102.353698,92.101082 C104.090614,91.1751139 105.52631,89.8574886 106.643295,88.2413155 C106.772145,88.0649203 106.900996,88 107.022592,88 C107.438155,88 107.651056,88.1400911 107.651056,88.4497437 C107.651056,88.8503702 106.955181,89.7011674 105.601829,91.0260535 C105.630414,91.0760251 105.643214,91.1336845 105.643214,91.2327733 L105.643214,94.0935364 C105.643214,94.4437642 105.480658,94.6594533 105.110748,94.6594533 C104.761317,94.6594533 104.586388,94.4437642 104.586388,94.0935364 L104.586388,91.8601936 Z" id="Fill-3" fill="#4F2E12"></path>
                    <path d="M151.971981,105.952186 C151.97909,106.017103 152,106.065791 152,106.099499 C152,106.447806 151.811814,106.626745 151.480606,106.626745 C151.220073,106.626745 151.058233,106.465284 150.984631,106.164416 L149.665656,100.981003 C149.641401,100.922744 149.641401,100.859907 149.641401,100.79499 C149.641401,100.460415 149.796132,100.308108 150.139467,100.308108 C150.408782,100.308108 150.572295,100.460415 150.656769,100.730072 L151.971981,105.952186 Z M150.34689,97.2686378 C149.843806,96.0335407 149.597073,95.4014274 149.597073,95.2944799 C149.597073,95.2054264 149.641401,95.1242796 149.741767,95.0755914 C149.864715,94.9703086 149.970518,94.9212043 150.072556,94.9212043 C150.256979,94.9212043 150.396236,94.9773829 150.489911,95.0826658 C150.572295,95.1896132 150.854156,95.895383 151.322112,97.1616904 C151.776686,98.4300784 152,99.2024302 152,99.4375481 C152,99.7142798 151.864506,99.8195626 151.54459,99.8195626 C151.406587,99.8195626 151.273183,99.720938 151.188709,99.542831 C151.08667,99.3480785 150.906848,98.9098854 150.656769,98.2024511 L147.534135,98.4704438 L147.534135,105.612617 C147.534135,106.195626 147.44966,106.764903 147.285729,107.243461 C147.115107,107.732007 146.636278,108 145.861788,108 C145.449451,108 144.963931,107.933418 144.397282,107.836874 C143.825196,107.723268 143.527444,107.511038 143.527444,107.227232 C143.527444,106.789871 143.770413,106.626745 144.280606,106.764903 C144.791218,106.838559 145.242028,106.903477 145.629273,106.903477 C146.023628,106.903477 146.273706,106.821082 146.358181,106.660036 C146.45311,106.489836 146.502457,106.123635 146.502457,105.612617 L146.502457,98.5511745 L143.134762,98.8029379 C143.011396,98.8279062 142.877574,98.7717276 142.703607,98.691413 C142.558913,98.6019434 142.478202,98.4300784 142.478202,98.2024511 C142.478202,98.0076985 142.515003,97.8870186 142.658024,97.7800712 C144.294825,96.4958698 145.731312,95.2054264 146.963304,93.9790683 L142.502457,94.1084871 C142.020282,94.1084871 141.804077,93.9120701 141.804077,93.5321362 C141.804077,93.3694264 141.881443,93.2329331 142.020282,93.1343085 C143.999164,91.4443728 145.495452,89.8272612 146.45311,88.2684089 C146.551803,88.0894696 146.702771,88 146.865029,88 C147.213382,88 147.387768,88.1385739 147.387768,88.446932 C147.387768,88.6013192 147.305384,88.8043944 147.115107,89.1123364 C146.94574,89.3965585 146.514584,89.9479412 145.833351,90.7377707 C145.136226,91.5159485 144.397282,92.3057781 143.580136,93.1010175 L147.718975,92.948711 C147.738212,92.9387237 147.812232,92.948711 147.864924,92.9803375 C148.650288,92.1027028 149.290957,91.2670981 149.836696,90.4860074 C149.945844,90.3141424 150.072556,90.2425667 150.220596,90.2425667 C150.354417,90.2425667 150.489911,90.3141424 150.596968,90.445642 C150.706534,90.6083519 150.730789,90.7136348 150.730789,90.762739 C150.730789,91.0623583 150.000209,92.0448597 148.474229,93.670294 C146.979613,95.2874056 145.6046,96.6028173 144.37219,97.6997566 L150.34689,97.2686378 Z M144.509357,100.75296 C144.509357,101.46081 144.187768,102.686752 143.571354,104.424544 C142.925248,106.155261 142.42551,107.024157 142.052065,107.024157 C141.673602,107.024157 141.485416,106.854373 141.485416,106.521462 C141.485416,106.431993 141.518871,106.327126 141.587454,106.195626 C142.590695,104.636774 143.199582,102.800774 143.469315,100.695117 C143.513225,100.379684 143.706848,100.201161 144.03471,100.201161 C144.347935,100.201161 144.509357,100.404236 144.509357,100.75296 L144.509357,100.75296 Z M140.541558,105.049999 C140.559122,105.123655 140.559122,105.188573 140.559122,105.246416 C140.559122,105.561848 140.386827,105.750775 140.008364,105.750775 C139.79885,105.750775 139.621119,105.612617 139.552535,105.351699 L138.497857,101.420445 C138.497857,101.371341 138.475274,101.306423 138.475274,101.232767 C138.475274,100.899856 138.645896,100.730072 138.971249,100.730072 C139.24391,100.730072 139.419969,100.884043 139.473079,101.143297 L140.541558,105.049999 Z M137.330685,106.262208 C137.330685,106.821082 137.188082,107.090739 136.894093,107.090739 C136.534867,107.090739 136.355463,106.928029 136.355463,106.568486 C136.327444,105.440752 136.241296,104.449512 136.11793,103.582281 L135.795504,101.541125 C135.795504,101.232767 135.915107,101.094609 136.143858,101.094609 C136.420282,101.094609 136.600105,101.136639 136.690016,101.240257 C136.767381,101.353863 136.894093,102.07711 137.073497,103.41749 C137.24621,104.75038 137.330685,105.701671 137.330685,106.262208 L137.330685,106.262208 Z M134.281652,101.648072 L133.804914,104.360042 C133.52138,106.593454 133.158808,107.705791 132.764036,107.705791 C132.391009,107.705791 132.216623,107.560142 132.216623,107.307963 C132.216623,107.211419 132.239624,107.104888 132.264297,107.033312 C132.693779,105.449491 133.010768,103.638043 133.253319,101.648072 C133.30643,101.306423 133.492943,101.143297 133.779822,101.143297 C133.885625,101.143297 134.0069,101.208631 134.119812,101.288945 C134.204286,101.388818 134.281652,101.509498 134.281652,101.648072 L134.281652,101.648072 Z M139.473079,98.3880485 C138.841192,96.8870394 138.52253,96.0335407 138.52253,95.8150684 C138.52253,95.5870248 138.661788,95.4238988 138.971249,95.4238988 C139.212546,95.4238988 139.39195,95.5712116 139.513643,95.7568091 C139.591427,95.9848526 139.922216,96.6993612 140.386827,97.9011673 C140.865238,99.1450032 141.097752,99.9244294 141.097752,100.274401 C141.097752,100.560288 140.964349,100.680968 140.636905,100.680968 C140.488866,100.680968 140.362154,100.607312 140.277679,100.460415 C140.193204,100.290631 140.038055,99.9086161 139.823523,99.3077131 L139.79885,99.3077131 L133.30643,100.006825 C133.151281,100.04719 132.99655,100.006825 132.816728,99.9086161 C132.651542,99.8278854 132.563722,99.6739144 132.563722,99.4375481 C132.563722,99.3077131 132.600523,99.1691392 132.73058,99.0484592 C134.225196,97.5124945 135.501516,96.0743222 136.559958,94.6690248 L132.73978,94.9212043 C132.260533,94.9212043 132,94.718129 132,94.3610828 C132,94.2225089 132.065238,94.0751961 132.172713,93.9790683 C133.950444,91.9487318 135.219655,90.1198061 135.975327,88.4311188 C136.045583,88.2034914 136.225405,88.0894696 136.432828,88.0894696 C136.559958,88.0894696 136.690016,88.1385739 136.784945,88.2351179 C136.894093,88.3420653 136.938003,88.4223799 136.938003,88.446932 C136.938003,89.1772539 135.820178,90.9970246 133.570308,93.8737854 L137.144171,93.6303448 L137.297229,93.670294 C137.950444,92.686128 138.52253,91.7610537 138.971249,90.9008968 C139.073288,90.7136348 139.212546,90.6083519 139.39195,90.6083519 C139.481861,90.6083519 139.621119,90.6316556 139.746158,90.7377707 C139.860324,90.8118433 139.922216,90.9008968 139.922216,91.0219929 C139.922216,91.1114625 139.922216,91.2250681 139.881652,91.3145378 C139.860324,91.3952685 139.580554,91.8680011 139.049033,92.728158 C138.497857,93.5741662 137.832096,94.4992405 137.020805,95.5870248 C136.225405,96.6519215 135.302875,97.7642579 134.281652,98.9173758 L139.473079,98.3880485 Z" id="Fill-5" fill="#4F2E12"></path>
                    <polygon id="Fill-7" fill="#4F2E12" points="0 71 0 39 6.09220047 39 6.09220047 66.0526999 18 66.0526999 18 71"></polygon>
                    <path d="M48.9741697,49.93827 C48.37979,48.3389875 47.9885041,47.0368534 47.7266534,45.9740417 L47.6866307,45.9740417 C47.4992904,47.079484 47.0500993,48.3389875 46.4974454,49.8230406 L43.6924496,57.2373968 L51.571388,57.2373968 L48.9741697,49.93827 Z M56.6419245,70 L53.4541584,62.0259583 L41.8599205,62.0259583 L38.8582174,70 L33,70 L45.61652,38 L49.9508941,38 L63,70 L56.6419245,70 Z" id="Fill-9" fill="#4F2E12"></path>
                    <mask id="mask-2" fill="white">
                        <use xlink:href="#path-1"></use>
                    </mask>
                    <g id="Clip-12"></g>
                    <polygon id="Fill-11" fill="#4F2E12" mask="url(#mask-2)" points="136 71 142 71 142 39 136 39"></polygon>
                    <polygon id="Fill-13" fill="#4F2E12" mask="url(#mask-2)" points="166 71 166 39 184 39 182.384165 43.9044939 171.942241 43.9044939 171.942241 52.2114486 182.384165 52.2114486 182.384165 57.1176377 171.942241 57.1176377 171.942241 66.1044064 184 66.1044064 184 71"></polygon>
                    <path d="M210.8,71 C206.319165,71 203.1169,69.5245012 201,68.0596635 L203.374784,63.699266 C205.114039,64.9308384 207.560596,66.1551613 210.567988,66.1551613 C213.023726,66.1551613 215.816632,65.1299881 215.816632,62.433578 C215.816632,57.8382094 208.08763,57.0138918 204.230224,52.6087176 C202.979613,51.1779955 202.150462,49.3383128 202.150462,46.8572573 C202.150462,42.0209475 205.870999,38 212.535499,38 C215.911773,38 218.624143,38.8166417 220.354218,39.7987439 L220.261162,45.0674687 C217.780805,43.6870671 215.433562,42.8452652 212.820089,42.8452652 C210.258778,42.8452652 208.258301,43.9454926 208.258301,46.099465 C208.258301,52.0952781 222,51.7276827 222,61.758516 C222,67.4191435 217.088525,71 210.8,71" id="Fill-14" fill="#4F2E12" mask="url(#mask-2)"></path>
                    <path d="M111.050089,34.2609666 C111.840565,34.2609666 111.943026,34.4849279 111.943026,34.9349793 C111.943026,35.4655036 110.8693,35.691168 108.451301,36.5644467 C97.1661727,40.6025622 86.5326473,55.3299325 86.5326473,67.2330913 C86.5326473,70.7138584 87.2066896,75.5192329 91.6815345,75.5192329 C106.35635,75.5192329 116.323878,29.9218232 116.323878,18.9004587 C116.323878,10.3635315 113.588333,1.54686565 103.413766,1.54686565 C91.1319699,1.54686565 86.6397658,12.8833088 85.3340206,12.8833088 C84.9000423,12.8833088 84.6853819,12.6665858 84.6853819,12.2186633 C84.6853819,11.1554858 91.7886531,0 104.38503,0 C118.075879,0 124,11.1554858 124,23.5712861 C124,49.5627166 102.302358,79 87.2066896,79 C80.8473207,79 78,74.20527 78,68.3124485 C78,46.6192863 104.492149,34.2609666 111.050089,34.2609666" id="Fill-15" fill="#4F2E12" mask="url(#mask-2)"></path>
                    <path d="M237.426278,32.2361561 L237.426278,34.2130855 L238.642586,34.2130855 C239.698775,34.2130855 241.178707,34.3949257 241.178707,33.3191438 C241.178707,32.3340701 240.330376,32.2361561 239.382341,32.2361561 L237.426278,32.2361561 Z M242.201521,39.0040873 L240.897761,39.0040873 L238.877482,35.3727936 L237.426278,35.3727936 L237.426278,39.0040873 L236.291086,39.0040873 L236.291086,31.1281601 L239.599493,31.1281601 C241.009294,31.1281601 242.309675,31.5490629 242.309675,33.2034273 C242.309675,34.7611493 241.260245,35.3138757 240.193494,35.3727936 L242.201521,39.0040873 Z M233.129278,35.0074177 C233.129278,38.2852039 235.797212,40.8576705 239.00507,40.8576705 C242.201521,40.8576705 244.86354,38.2852039 244.86354,35.0074177 C244.86354,31.6974174 242.201521,29.1402101 239.00507,29.1402101 C235.797212,29.1402101 233.129278,31.6974174 233.129278,35.0074177 L233.129278,35.0074177 Z M232,35.0074177 C232,31.1031518 235.089142,28 239.00507,28 C242.914237,28 246,31.1031518 246,35.0074177 C246,38.8968482 242.914237,42 239.00507,42 C235.089142,42 232,38.8968482 232,35.0074177 L232,35.0074177 Z" id="Fill-16" fill="#4F2E12" mask="url(#mask-2)"></path>
                    <polygon id="Fill-17" fill="#4F2E12" mask="url(#mask-2)" points="0 82 63 82 63 81 0 81"></polygon>
                    <polygon id="Fill-18" fill="#4F2E12" mask="url(#mask-2)" points="160 82 223 82 223 81 160 81"></polygon>
                </g>
            </g>
        </g>
    </g>
</svg>