<?xml version="1.0" encoding="UTF-8"?>
<svg width="34px" height="12px" viewBox="0 0 34 12" version="1.1" xmlns="http://www.w3.org/2000/svg" xmlns:xlink="http://www.w3.org/1999/xlink">
    <!-- Generator: Sketch 53.2 (72643) - https://sketchapp.com -->
    <title>line</title>
    <desc>Created with Sketch.</desc>
    <g id="Symbols" stroke="none" stroke-width="1" fill="none" fill-rule="evenodd">
        <g id="footerPc" transform="translate(-917.000000, -104.000000)" fill="#080404">
            <g id="footer" transform="translate(0.000000, 85.000000)">
                <g id="Group-3" transform="translate(865.000000, 14.000000)">
                    <g id="line" transform="translate(52.000000, 5.000000)">
                        <path d="M24.0417579,0.486557895 L24.0417579,11.2788737 C24.0417579,11.5526632 23.8288105,11.7638211 23.5568105,11.7638211 L21.8263895,11.7638211 C21.6581789,11.7638211 21.5060737,11.6725579 21.4309158,11.5669789 L16.4830211,4.88866316 L16.4830211,11.2931895 C16.4830211,11.5669789 16.2700737,11.7799263 15.9962842,11.7799263 L14.2676526,11.7799263 C13.9938632,11.7799263 13.7809158,11.5669789 13.7809158,11.2931895 L13.7809158,0.502663158 C13.7809158,0.227084211 13.9938632,0.0159263158 14.2676526,0.0159263158 L15.9819684,0.0159263158 C16.1340737,0.0159263158 16.3004947,0.0910842105 16.3756526,0.227084211 L21.3253368,6.90718947 L21.3253368,0.502663158 C21.3253368,0.227084211 21.5382842,0.0159263158 21.8102842,0.0159263158 L23.5407053,0.0159263158 C23.8144947,0.00161052632 24.0417579,0.227084211 24.0417579,0.486557895" id="Fill-4"></path>
                        <path d="M11.5948947,0.000715789474 L9.86447368,0.000715789474 C9.59247368,0.000715789474 9.37952632,0.213663158 9.37952632,0.485663158 L9.37952632,11.2797684 C9.37952632,11.5517684 9.59247368,11.7629263 9.86447368,11.7629263 L11.5948947,11.7629263 C11.8686842,11.7629263 12.0798421,11.5517684 12.0798421,11.2797684 L12.0798421,0.485663158 C12.0798421,0.227978947 11.8686842,0.000715789474 11.5948947,0.000715789474" id="Fill-6"></path>
                        <path d="M7.42094737,9.04757895 L2.70031579,9.04757895 L2.70031579,0.486736842 C2.70031579,0.212947368 2.48915789,1.59872116e-14 2.21536842,1.59872116e-14 L0.484947368,1.59872116e-14 C0.211157895,1.59872116e-14 4.08562073e-14,0.212947368 4.08562073e-14,0.486736842 L4.08562073e-14,11.2790526 C4.08562073e-14,11.4150526 0.0447368421,11.5224211 0.136,11.6136842 C0.225473684,11.6888421 0.332842105,11.7496842 0.468842105,11.7496842 L7.40663158,11.7496842 C7.68042105,11.7496842 7.89157895,11.5367368 7.89157895,11.2629474 L7.89157895,9.53252632 C7.89157895,9.27484211 7.68042105,9.04757895 7.42094737,9.04757895" id="Fill-8"></path>
                        <path d="M33.1491053,0.000715789474 L26.2131053,0.000715789474 C25.9536316,0.000715789474 25.7263684,0.213663158 25.7263684,0.485663158 L25.7263684,11.2797684 C25.7263684,11.5356632 25.9393158,11.7629263 26.2131053,11.7629263 L33.1491053,11.7629263 C33.4228947,11.7629263 33.6340526,11.5517684 33.6340526,11.2797684 L33.6340526,9.54755789 C33.6340526,9.27555789 33.4228947,9.06082105 33.1491053,9.06082105 L28.4284737,9.06082105 L28.4284737,7.24092632 L33.1491053,7.24092632 C33.4228947,7.24092632 33.6340526,7.02976842 33.6340526,6.75418947 L33.6340526,5.00945263 C33.6340526,4.73566316 33.4228947,4.52271579 33.1491053,4.52271579 L28.4284737,4.52271579 L28.4284737,2.70282105 L33.1491053,2.70282105 C33.4228947,2.70282105 33.6340526,2.49166316 33.6340526,2.21608421 L33.6340526,0.485663158 C33.6197368,0.227978947 33.4067895,0.000715789474 33.1491053,0.000715789474" id="Fill-10"></path>
                    </g>
                </g>
            </g>
        </g>
    </g>
</svg>